<?xml version="1.0" standalone="no"?>
<!DOCTYPE svg PUBLIC "-//W3C//DTD SVG 20010904//EN"
 "http://www.w3.org/TR/2001/REC-SVG-20010904/DTD/svg10.dtd">
<svg version="1.0" xmlns="http://www.w3.org/2000/svg"
 width="1920.000000pt" height="1080.000000pt" viewBox="0 0 1920.000000 1080.000000"
 preserveAspectRatio="xMidYMid meet">

<g transform="translate(0.000000,1080.000000) scale(0.100000,-0.100000)"
fill="#000000" stroke="none">
<path d="M15470 7061 c-97 -28 -154 -53 -165 -71 -3 -5 -14 -10 -24 -10 -38 0
-508 -330 -601 -421 -19 -19 -45 -42 -57 -50 -67 -46 -361 -354 -422 -443 -8
-12 -17 -23 -21 -26 -12 -10 -118 -158 -163 -227 -25 -39 -50 -73 -54 -75 -5
-1 -23 -22 -41 -45 -37 -47 -20 -44 -312 -63 -255 -16 -300 -23 -316 -45 -30
-40 -18 -73 52 -145 36 -38 63 -73 60 -78 -3 -5 -21 -13 -41 -16 -19 -4 -50
-22 -70 -40 -29 -28 -35 -40 -35 -75 0 -34 6 -49 29 -72 27 -27 35 -29 100
-29 69 0 71 -1 71 -25 0 -19 -6 -26 -27 -30 -16 -4 -59 -16 -98 -28 -53 -17
-73 -28 -85 -49 -16 -30 -13 -39 56 -151 35 -57 35 -58 35 -176 1 -157 27
-241 111 -358 33 -46 57 -87 54 -92 -5 -8 -53 -14 -241 -29 l-80 -7 -3 -42
c-4 -57 6 -72 74 -108 68 -36 88 -61 60 -77 -58 -33 -73 -93 -38 -155 17 -30
141 -140 212 -187 64 -42 144 -93 192 -120 27 -16 51 -32 54 -38 3 -5 -1 -26
-9 -46 -9 -21 -21 -52 -29 -69 -7 -18 -16 -33 -20 -33 -5 0 -8 -5 -8 -10 0
-14 -71 -117 -112 -161 -46 -50 -86 -79 -291 -201 -128 -76 -182 -106 -277
-151 -19 -10 -75 -39 -124 -65 -154 -83 -163 -128 -41 -195 39 -22 90 -46 115
-55 25 -8 54 -21 65 -28 11 -6 36 -15 55 -19 19 -4 40 -11 45 -15 12 -9 192
-53 281 -69 79 -14 351 -14 428 0 34 6 88 20 120 30 92 29 81 44 116 -151 13
-72 52 -162 103 -236 41 -60 262 -282 335 -337 28 -22 52 -47 52 -56 0 -9 -93
-108 -206 -221 -113 -113 -219 -224 -235 -247 -16 -23 -37 -48 -47 -55 -9 -7
-30 -31 -46 -52 -51 -68 -85 -94 -129 -101 -23 -3 -69 -10 -102 -15 -33 -5
-94 -14 -135 -20 -64 -9 -191 -39 -445 -104 -74 -19 -233 -81 -340 -131 -52
-25 -101 -45 -110 -45 -8 0 -25 -10 -37 -23 -31 -31 -177 -135 -215 -152 -18
-8 -37 -24 -43 -35 -13 -23 -44 -26 -82 -6 -46 24 -139 54 -218 71 -55 11
-136 15 -300 15 -235 0 -261 -3 -473 -55 -53 -14 -114 -24 -134 -23 -29 1 -42
-5 -62 -28 -14 -17 -52 -45 -84 -62 -47 -27 -64 -31 -96 -26 -31 5 -43 2 -60
-15 -12 -12 -21 -34 -21 -49 0 -21 -16 -44 -63 -93 -35 -35 -72 -77 -81 -92
l-18 -27 40 0 c37 0 47 6 109 69 169 171 381 269 713 330 100 19 368 16 475
-4 125 -23 241 -66 295 -108 8 -7 46 -74 83 -149 l68 -138 39 0 39 0 -34 68
c-19 37 -35 73 -35 80 0 6 -3 12 -8 12 -8 0 -42 73 -42 90 0 6 -4 10 -10 10
-5 0 -10 10 -9 23 1 47 226 208 424 302 63 30 119 55 124 55 5 0 22 7 37 15
16 8 36 15 45 15 8 0 19 4 25 9 5 6 27 14 49 20 22 5 67 17 100 26 90 24 169
42 280 65 165 33 198 39 254 46 45 6 53 5 45 -7 -4 -8 -31 -48 -60 -89 -97
-143 -208 -360 -263 -515 -18 -53 -61 -206 -61 -220 0 -3 37 -5 81 -5 67 0 79
2 70 13 -12 16 -5 27 18 27 14 0 14 -2 1 -10 -12 -8 -11 -10 8 -10 12 0 22 -4
22 -10 0 -6 940 -10 2760 -10 l2760 0 0 2479 0 2478 -92 -4 c-51 -2 -115 -6
-143 -9 -27 -3 -97 -9 -155 -14 -58 -5 -152 -14 -210 -20 -221 -23 -269 -24
-276 -6 -4 9 3 54 15 101 39 157 30 178 -86 185 -101 7 -105 21 -21 83 74 54
150 130 207 207 48 63 55 116 21 150 -30 30 -32 30 -270 -60 -119 -45 -281
-100 -308 -105 -30 -5 -72 11 -72 27 0 7 25 33 56 58 31 25 78 63 104 85 26
22 85 72 131 110 150 125 199 178 199 213 0 19 -9 41 -21 53 -20 20 -27 21
-148 14 -69 -4 -207 -8 -306 -9 -260 -2 -265 0 -425 162 -69 70 -138 144 -154
165 -15 21 -37 46 -48 57 -12 11 -28 30 -37 43 -18 28 -101 123 -180 209 -63
68 -211 168 -334 227 -47 23 -88 41 -91 41 -3 0 -29 11 -58 24 -29 13 -80 31
-113 41 -33 10 -64 21 -70 25 -5 4 -46 17 -90 28 -178 47 -222 52 -445 51
-205 0 -219 -1 -310 -28z m535 -964 c33 -76 118 -190 215 -287 139 -139 280
-229 388 -246 49 -8 69 -26 49 -43 -10 -8 -29 -8 -69 -1 -144 27 -335 163
-487 346 -92 111 -169 248 -151 269 17 21 34 9 55 -38z m444 -102 c141 -207
255 -324 406 -415 47 -28 85 -57 85 -65 0 -31 -35 -23 -114 24 -150 91 -271
215 -416 427 -39 57 -68 109 -65 114 16 26 44 4 104 -85z m645 -87 c113 -81
119 -87 104 -105 -13 -16 -27 -9 -138 70 -91 64 -113 85 -104 98 12 19 41 6
138 -63z m-165 -91 c109 -113 131 -140 121 -152 -17 -20 -32 -10 -120 82 -188
196 -184 191 -171 207 8 9 19 12 26 8 6 -4 72 -69 144 -145z m-2036 72 c51
-63 201 -187 371 -305 118 -83 137 -89 171 -62 21 16 30 18 62 8 21 -6 80 -22
132 -36 51 -13 116 -37 145 -52 75 -39 235 -145 235 -156 1 -5 -64 -6 -156 -3
-87 4 -306 9 -488 12 -402 7 -435 10 -435 35 0 27 36 116 61 150 24 32 20 60
-9 60 -37 0 -83 -75 -112 -182 -12 -47 -14 -48 -51 -48 -44 0 -45 1 -23 36 9
14 23 50 30 81 15 66 5 96 -29 91 -18 -2 -23 -11 -27 -48 -7 -54 -45 -137 -68
-148 -26 -11 -462 1 -464 13 -2 10 19 25 103 75 48 29 176 175 325 371 106
139 135 170 164 168 8 0 37 -27 63 -60z m-5 -805 c204 -4 372 -9 372 -13 0 -4
-15 -14 -32 -24 -47 -25 -130 -106 -172 -165 -84 -120 -104 -281 -53 -416 51
-131 152 -236 291 -306 82 -40 110 -50 201 -70 52 -12 258 -12 310 0 85 19
122 30 151 45 16 8 33 15 37 15 13 0 139 86 172 117 52 50 94 109 126 179 28
62 32 79 32 169 1 114 -13 161 -75 261 -36 58 -82 106 -154 162 -28 23 -28 23
-4 18 14 -3 76 -6 138 -6 l113 0 61 -57 c33 -32 91 -92 129 -135 l69 -76 -37
-23 c-85 -50 -154 -132 -185 -219 -30 -84 -69 -211 -78 -258 -6 -26 -17 -76
-25 -112 -33 -144 -77 -376 -110 -580 -58 -353 -57 -351 -75 -346 -8 3 -50 12
-93 21 -84 17 -174 48 -253 88 -45 23 -225 140 -264 172 -43 35 -282 147 -400
188 -64 22 -158 42 -298 63 -32 5 -32 5 -17 34 13 26 13 30 -3 50 -27 33 -49
21 -130 -75 -112 -132 -236 -221 -300 -213 -16 2 -32 14 -44 33 -17 29 -16 34
11 145 66 264 178 499 321 671 51 61 59 86 38 107 -32 32 -69 5 -163 -123
-110 -150 -225 -398 -269 -580 -34 -138 -29 -132 -97 -139 -33 -4 -70 -11 -82
-16 -12 -5 -49 -16 -82 -26 -33 -9 -69 -24 -79 -33 -18 -15 -19 -14 -13 34 4
28 7 102 8 165 1 63 6 149 13 190 l11 75 80 7 c138 12 236 55 340 151 116 105
185 258 185 407 0 142 -71 303 -175 398 -30 28 -55 54 -55 57 0 4 53 5 118 1
64 -3 285 -9 490 -12z m-851 -19 c103 -24 192 -80 254 -161 61 -79 90 -162 90
-261 1 -128 -37 -219 -128 -309 -67 -68 -150 -109 -252 -125 -304 -50 -568
202 -522 498 39 252 299 419 558 358z m1775 -31 c35 -8 100 -34 146 -56 102
-50 199 -148 232 -234 49 -134 10 -286 -102 -390 -39 -37 -136 -104 -150 -104
-6 0 -24 -7 -41 -14 -47 -22 -178 -46 -247 -46 -69 0 -200 24 -247 46 -17 7
-34 14 -37 14 -4 0 -36 18 -71 41 -78 49 -135 112 -172 188 -23 47 -27 69 -28
141 0 73 4 93 28 144 58 122 188 221 348 266 84 23 255 26 341 4z m-1212
-1925 c136 -235 308 -386 511 -448 142 -44 241 -54 516 -55 202 -1 259 -4 250
-13 -7 -6 -75 -56 -152 -110 -482 -340 -818 -591 -942 -705 -78 -71 -105 -85
-150 -73 -65 16 -293 223 -371 338 -55 79 -90 166 -101 250 -13 94 -14 207 -3
207 37 0 257 254 273 313 4 18 15 57 24 87 9 30 29 102 45 160 27 102 39 140
45 140 1 0 26 -41 55 -91z m-210 -1883 c0 -2 -8 -10 -17 -17 -16 -13 -17 -12
-4 4 13 16 21 21 21 13z m-74 -85 c0 -11 -5 -17 -13 -14 -10 4 -11 9 -2 19 15
18 15 18 15 -5z m-106 -115 c0 -2 -8 -10 -17 -17 -16 -13 -17 -12 -4 4 13 16
21 21 21 13z m-113 -141 c0 -8 -4 -12 -9 -9 -4 3 -8 9 -8 15 0 5 4 9 8 9 5 0
9 -7 9 -15z m-7 -61 c0 -8 -19 -13 -24 -6 -3 5 1 9 9 9 8 0 15 -2 15 -3z m-95
-78 c17 7 29 -12 14 -22 -8 -5 -9 -3 -5 5 5 8 2 11 -9 9 -10 -2 -19 3 -21 10
-1 7 0 8 2 3 3 -6 11 -8 19 -5z m-75 -85 c-7 -14 -6 -21 3 -24 6 -3 2 -5 -9
-4 -20 1 -21 3 -7 24 18 28 28 31 13 4z m16 -71 c0 -22 -3 -27 -12 -19 -8 6
-14 6 -18 0 -3 -5 -3 -11 1 -14 5 -2 2 -2 -5 0 -8 1 -21 3 -30 4 -14 0 -13 2
3 9 l20 9 -20 1 c-18 1 -17 3 5 12 14 6 28 12 32 12 3 1 10 4 14 9 10 10 10
10 10 -23z m-130 -139 c-4 -5 -3 -11 1 -14 5 -2 3 -3 -3 -1 -9 2 -35 -35 -38
-56 -1 -3 -4 -9 -7 -15 -4 -5 -5 -23 -3 -39 3 -27 2 -27 -12 -10 -12 15 -15
16 -11 3 3 -9 1 -21 -5 -27 -8 -8 -4 -10 13 -6 13 2 18 2 11 -2 -6 -3 -9 -10
-6 -16 4 -6 -1 -6 -13 1 -11 6 -23 7 -27 4 -4 -4 0 8 8 27 8 19 19 36 24 38 6
2 8 10 5 18 -3 8 0 14 6 14 6 0 10 3 9 8 -2 11 13 45 30 65 16 18 27 23 18 8z
m38 -40 c4 -5 -3 -7 -14 -4 -23 6 -26 13 -6 13 8 0 17 -4 20 -9z m-77 -161
c-1 -11 -5 -20 -9 -20 -10 0 -10 4 -2 24 8 22 13 20 11 -4z m-39 1 c11 -7 10
-9 -3 -14 -9 -4 -13 -3 -10 3 3 6 1 10 -4 10 -10 0 -13 -14 -10 -36 0 -4 -5
-11 -13 -15 -11 -7 -11 -12 0 -30 8 -11 9 -18 3 -15 -5 4 -16 -4 -23 -16 -16
-30 -18 -47 -7 -54 5 -3 9 -10 9 -16 0 -6 -7 -5 -17 3 -15 12 -16 12 -10 -3 3
-10 2 -18 -4 -18 -12 0 -2 58 14 78 5 7 11 22 13 35 3 30 32 97 42 97 4 0 13
-4 20 -9z m1019 -87 c-3 -3 -12 -4 -19 -1 -8 3 -5 6 6 6 11 1 17 -2 13 -5z
m-1049 -88 c1 -15 -1 -17 -7 -7 -5 7 -15 17 -22 22 -10 6 -8 8 7 7 12 -1 21
-10 22 -22z"/>
<path d="M16020 4113 c-239 -94 -568 -108 -785 -34 -72 25 -94 26 -101 6 -10
-24 12 -41 79 -62 124 -40 179 -48 347 -48 196 0 332 23 495 86 60 22 70 30
70 50 0 33 -26 34 -105 2z"/>
<path d="M15865 3955 c-84 -24 -267 -48 -316 -42 -56 7 -91 -11 -71 -36 27
-33 206 -27 379 13 98 23 124 39 103 65 -15 18 -29 18 -95 0z"/>
<path d="M14019 4695 c-36 -19 -63 -78 -55 -119 8 -42 54 -85 98 -92 117 -19
177 144 76 206 -38 23 -82 25 -119 5z"/>
<path d="M15692 4674 c-59 -41 -68 -117 -19 -171 30 -32 39 -36 82 -36 43 0
52 4 83 37 31 35 34 42 29 84 -7 63 -49 102 -110 102 -23 0 -53 -7 -65 -16z"/>
<path d="M14570 2395 c-18 -21 -8 -82 34 -206 26 -77 43 -111 66 -131 36 -33
40 -34 74 -7 54 43 25 148 -47 167 -29 7 -33 14 -50 78 -26 94 -34 114 -51
114 -7 0 -19 -7 -26 -15z"/>
<path d="M13895 590 c-3 -5 -1 -10 4 -10 6 0 11 5 11 10 0 6 -2 10 -4 10 -3 0
-8 -4 -11 -10z"/>
<path d="M13425 641 c-207 -60 -418 -171 -565 -297 -30 -25 -59 -53 -63 -61
-13 -21 0 -60 21 -65 26 -7 44 2 103 55 69 62 239 164 354 214 90 39 112 46
234 80 73 21 100 48 81 82 -14 28 -50 26 -165 -8z"/>
<path d="M13150 363 c-153 -90 -270 -186 -270 -223 0 -17 24 -50 36 -50 14 0
62 32 84 55 27 29 115 89 226 153 89 52 101 65 86 97 -18 38 -55 31 -162 -32z"/>
<path d="M11597 263 c-29 -3 -41 -10 -50 -30 -10 -23 -8 -28 16 -47 15 -12 27
-27 27 -33 0 -6 7 -16 15 -23 8 -7 15 -21 15 -31 0 -40 35 -49 198 -49 87 0
162 5 173 10 24 13 26 65 3 74 -9 3 -60 6 -114 6 -82 0 -99 3 -104 16 -4 9 -4
20 0 23 3 3 63 6 132 7 163 1 159 0 172 25 9 16 8 25 -6 40 -16 18 -32 19
-228 17 -116 -1 -228 -3 -249 -5z"/>
<path d="M13150 141 c-100 -65 -112 -77 -108 -109 2 -22 9 -28 34 -30 23 -2
50 10 117 55 91 61 105 79 87 113 -17 31 -48 24 -130 -29z"/>
</g>
</svg>
